<svg width="19" height="20" viewBox="0 0 19 20" fill="none" xmlns="http://www.w3.org/2000/svg">
<path d="M0 1H1.76842L4.12042 11.9819C4.2067 12.3841 4.43048 12.7436 4.75326 12.9986C5.07603 13.2536 5.4776 13.3881 5.88884 13.3789H14.5364C14.9389 13.3783 15.3291 13.2404 15.6426 12.988C15.9561 12.7356 16.1741 12.3838 16.2606 11.9907L17.7196 5.42105H2.71452M6.14527 17.7558C6.14527 18.2441 5.7494 18.64 5.26106 18.64C4.77272 18.64 4.37685 18.2441 4.37685 17.7558C4.37685 17.2675 4.77272 16.8716 5.26106 16.8716C5.7494 16.8716 6.14527 17.2675 6.14527 17.7558ZM15.8716 17.7558C15.8716 18.2441 15.4757 18.64 14.9874 18.64C14.499 18.64 14.1032 18.2441 14.1032 17.7558C14.1032 17.2675 14.499 16.8716 14.9874 16.8716C15.4757 16.8716 15.8716 17.2675 15.8716 17.7558Z" stroke="white" stroke-width="2"/>
</svg>
