<svg width="20" height="20" viewBox="0 0 20 20" fill="none" xmlns="http://www.w3.org/2000/svg">
<path d="M17.6627 8.58247V16.1925C17.6627 17.5458 16.5656 18.6429 15.2123 18.6429H12.2718C12.0012 18.6429 11.7818 18.4234 11.7818 18.1528V12.2718C11.7818 12.0012 11.5623 11.7817 11.2917 11.7817H8.3512C8.08054 11.7817 7.86113 12.0012 7.86113 12.2718V18.1528C7.86113 18.4234 7.64171 18.6429 7.37105 18.6429H4.43057C3.07725 18.6429 1.98017 17.5458 1.98017 16.1925V8.58247L1.80164 8.7295C1.59271 8.90156 1.28385 8.87167 1.11179 8.66274C0.939724 8.4538 0.969613 8.14495 1.17855 7.97288L9.5099 1.11177C9.69086 0.962743 9.95203 0.962743 10.133 1.11177L18.4643 7.97288C18.6733 8.14495 18.7032 8.4538 18.5311 8.66274C18.359 8.87167 18.0502 8.90156 17.8412 8.7295L17.6627 8.58247ZM16.6891 7.78069L9.82144 2.12495L2.95376 7.78069C2.95808 7.80685 2.96033 7.83372 2.96033 7.86111V16.1925C2.96033 17.0044 3.61858 17.6627 4.43057 17.6627H6.88097V12.2718C6.88097 11.4598 7.53921 10.8016 8.3512 10.8016H11.2917C12.1037 10.8016 12.7619 11.4598 12.7619 12.2718V17.6627H15.2123C16.0243 17.6627 16.6826 17.0044 16.6826 16.1925V7.86111C16.6826 7.83372 16.6848 7.80685 16.6891 7.78069Z" fill="white" stroke="white"/>
</svg>
