<svg width="20" height="20" viewBox="0 0 20 20" fill="none" xmlns="http://www.w3.org/2000/svg">
<path d="M10.1607 18.6429L9.83739 18.3458C2.88603 12.1085 1 9.91053 1 6.34632C1 3.37614 3.15546 1 5.84979 1C8.05914 1 9.29853 2.36628 10.1607 3.43555C11.0229 2.36628 12.2623 1 14.4716 1C17.166 1 19.3214 3.37614 19.3214 6.34632C19.3214 9.91053 17.4354 12.1085 10.484 18.3458L10.1607 18.6429ZM5.84979 2.18807C3.74821 2.18807 2.07773 4.02958 2.07773 6.34632C2.07773 9.3759 3.8021 11.3956 10.1607 17.0984C16.5193 11.3956 18.2437 9.3759 18.2437 6.34632C18.2437 4.02958 16.5732 2.18807 14.4716 2.18807C12.5856 2.18807 11.5618 3.43555 10.7535 4.44541L10.1607 5.21765L9.56796 4.44541C8.75966 3.43555 7.73582 2.18807 5.84979 2.18807Z" fill="white" stroke="white"/>
</svg>
