<svg width="20" height="20" viewBox="0 0 20 20" fill="none" xmlns="http://www.w3.org/2000/svg">
<path d="M14.7216 14.0286L18.4993 17.8062C18.6907 17.9976 18.6907 18.3079 18.4993 18.4993C18.3079 18.6907 17.9976 18.6907 17.8062 18.4993L14.0286 14.7216C12.6462 15.942 10.8302 16.6825 8.84127 16.6825C4.51066 16.6825 1 13.1719 1 8.84127C1 4.51066 4.51066 1 8.84127 1C13.1719 1 16.6825 4.51066 16.6825 8.84127C16.6825 10.8302 15.942 12.6462 14.7216 14.0286ZM8.84127 15.7024C12.6306 15.7024 15.7024 12.6306 15.7024 8.84127C15.7024 5.05198 12.6306 1.98016 8.84127 1.98016C5.05198 1.98016 1.98016 5.05198 1.98016 8.84127C1.98016 12.6306 5.05198 15.7024 8.84127 15.7024Z" fill="white" stroke="white"/>
</svg>
