<svg width="18" height="18" viewBox="0 0 18 18" fill="none" xmlns="http://www.w3.org/2000/svg">
<path d="M13.7216 13.0286L17.4993 16.8062C17.6907 16.9976 17.6907 17.3079 17.4993 17.4993C17.3079 17.6907 16.9976 17.6907 16.8062 17.4993L13.0286 13.7216C11.6462 14.942 9.83022 15.6825 7.84127 15.6825C3.51066 15.6825 0 12.1719 0 7.84127C0 3.51066 3.51066 0 7.84127 0C12.1719 0 15.6825 3.51066 15.6825 7.84127C15.6825 9.83022 14.942 11.6462 13.7216 13.0286ZM7.84127 14.7024C11.6306 14.7024 14.7024 11.6306 14.7024 7.84127C14.7024 4.05198 11.6306 0.980159 7.84127 0.980159C4.05198 0.980159 0.980159 4.05198 0.980159 7.84127C0.980159 11.6306 4.05198 14.7024 7.84127 14.7024Z" fill="#9D9D9D"/>
</svg>
